<svg xmlns="http://www.w3.org/2000/svg" width="30" height="30" viewBox="0 0 30 30">
  <defs>
    <style>
      .cls-1 {
        fill: #fb4381;
        fill-rule: evenodd;
      }
    </style>
  </defs>
  <path id="earth.svg" class="cls-1" d="M848,1262.99a15,15,0,1,0,15,15A15,15,0,0,0,848,1262.99Zm1.129,25.77a7.51,7.51,0,0,1,2.279-4.77c2.835-2.92.673-4.44-2.069-4.81s-4.642.73-5.315-1.1a1.948,1.948,0,0,1,.944-2.74c0.407-.13,1.189-0.56,2.457.96,0.531,0.53,1.255.62,1.238-.05s-0.843-2,.054-3.06,2.946-1.58,2.854-3.15-1.422-2.22-3-1.81-2.433.72-2.882-.64c-0.1-.3-0.183-0.59-0.254-0.87a0.644,0.644,0,0,1,.5-0.79,12.744,12.744,0,0,1,2.064-.18,12.233,12.233,0,0,1,11.171,7.24,2.512,2.512,0,0,1-1.708,3.48l-0.031.01c-1.877.42-2.773,1.17-.646,2.97,0.509,0.34,1.057.67,1.569,1.06a2.266,2.266,0,0,1,.673,2.78,12.275,12.275,0,0,1-8.291,6.62,1.337,1.337,0,0,1-1.608-1.15h0Zm-5.9-22.03a0.43,0.43,0,0,1,.561.21c0.184,0.44-.2.97-1.809,2.23-2.036,1.58-2.387,2.92-1.993,5.53s1.937,2.69,2.9,4.67,0.087,3.66,1.563,7.05c0.647,1.36,1.48,2.21,1.823,2.89a0.491,0.491,0,0,1-.532.7A12.227,12.227,0,0,1,843.227,1266.73Z" transform="translate(-833 -1263)"/>
</svg>
