<svg xmlns="http://www.w3.org/2000/svg" width="18" height="12" viewBox="0 0 18 12">
  <defs>
    <style>
      .cls-1 {
        fill: #fff;
        fill-rule: evenodd;
      }
    </style>
  </defs>
  <path id="envelope" class="cls-1" d="M142.48,14a0.478,0.478,0,0,1,.311.864L135.5,20.132a0.883,0.883,0,0,1-1.025,0L127.2,14.86A0.478,0.478,0,0,1,127.509,14H142.48Zm0.665,1.857a0.522,0.522,0,0,1,.841.384V25a1.036,1.036,0,0,1-1.065,1.005h-15.85A1.037,1.037,0,0,1,126.006,25V16.239a0.522,0.522,0,0,1,.841-0.384l7.4,5.531a1.251,1.251,0,0,0,1.482,0Z" transform="translate(-126 -14)"/>
</svg>
