<svg xmlns="http://www.w3.org/2000/svg" width="16" height="15" viewBox="0 0 16 15">
  <defs>
    <style>
      .cls-1 {
        fill: #fff;
        fill-rule: evenodd;
        opacity: 0.75;
      }
    </style>
  </defs>
  <path id="google.svg" class="cls-1" d="M1274,15.95h-2.46V13.492h-0.74V15.95h-2.46v0.738h2.46V18.9l0.74,0.023V16.688H1274V15.95Zm-8.18,5.683a3.039,3.039,0,0,1-1.25-1.444c0-.5.15-0.743,0.91-1.328a3.1,3.1,0,0,0,1.33-2.426,2.761,2.761,0,0,0-1.52-2.683h1.5l0.62-.26s-3.1-.492-4.28-0.492c-2.12,0-4.11,1.578-4.11,3.405a3.384,3.384,0,0,0,3.59,3.375c0.15,0,.3,0,0.44-0.013a1.866,1.866,0,0,0-.24.868,1.821,1.821,0,0,0,.64,1.283c-0.27,0-.53.008-0.81,0.008-2.62,0-4.64,1.643-4.64,3.347,0,1.678,2.21,2.727,4.83,2.727,2.99,0,4.64-1.668,4.64-3.346a3.239,3.239,0,0,0-1.65-3.019h0Zm-2.52-2.328h0c-1.22-.036-2.37-1.338-2.58-2.91s0.6-2.775,1.82-2.739a3.116,3.116,0,0,1,2.58,2.869C1265.33,18.1,1264.51,19.342,1263.3,19.306Zm-0.48,7.95h0c-1.81,0-3.12-1.129-3.12-2.484,0-1.328,1.62-2.435,3.43-2.415a3.981,3.981,0,0,1,1.18.185c0.98,0.673,1.69,1.053,1.89,1.821a2.529,2.529,0,0,1,.05.479C1266.25,26.2,1265.37,27.256,1262.82,27.256Z" transform="translate(-1258 -13)"/>
</svg>
