<svg xmlns="http://www.w3.org/2000/svg" width="30" height="30" viewBox="0 0 30 30">
  <defs>
    <style>
      .cls-1 {
        fill: #fb4381;
        fill-rule: evenodd;
      }
    </style>
  </defs>
  <path id="help.svg" class="cls-1" d="M554.18,1293.01a15,15,0,1,0-15.174-14.83A15.007,15.007,0,0,0,554.18,1293.01Zm11.657-9.58a13.092,13.092,0,0,1-6.14,6.28,1.473,1.473,0,0,1-2.061-.98l-0.235-.93a1.4,1.4,0,0,1,.7-1.59,9.206,9.206,0,0,0,4.219-4.32,1.389,1.389,0,0,1,1.619-.74l0.918,0.24a1.489,1.489,0,0,1,.981,2.04h0Zm-15.22,5.41a1.478,1.478,0,0,1-2.031.98,13.032,13.032,0,0,1-6.286-6.14,1.478,1.478,0,0,1,.983-2.06l0.927-.23a1.385,1.385,0,0,1,1.587.7,9.221,9.221,0,0,0,4.327,4.21,1.4,1.4,0,0,1,.735,1.62Zm10.552-10.94a7.188,7.188,0,1,1-7.27-7.11A7.19,7.19,0,0,1,561.169,1277.9Zm-18.979-5.33a13.054,13.054,0,0,1,6.14-6.28,1.473,1.473,0,0,1,2.061.98l0.235,0.93a1.382,1.382,0,0,1-.7,1.58,9.273,9.273,0,0,0-4.219,4.33,1.4,1.4,0,0,1-1.619.73l-0.918-.24A1.476,1.476,0,0,1,542.19,1272.57Zm15.22-5.41a1.478,1.478,0,0,1,2.031-.98,13.032,13.032,0,0,1,6.286,6.14,1.478,1.478,0,0,1-.983,2.06l-0.927.23a1.385,1.385,0,0,1-1.587-.7,9.246,9.246,0,0,0-4.327-4.22,1.39,1.39,0,0,1-.735-1.62Z" transform="translate(-539 -1263)"/>
</svg>
