<svg xmlns="http://www.w3.org/2000/svg" width="15" height="15" viewBox="0 0 15 15">
  <defs>
    <style>
      .cls-1 {
        fill: #fff;
        fill-rule: evenodd;
        opacity: 0.75;
      }
    </style>
  </defs>
  <path id="icon" class="cls-1" d="M1233.1,13h-9.2a2.9,2.9,0,0,0-2.9,2.9V25.1a2.9,2.9,0,0,0,2.9,2.9h9.2a2.9,2.9,0,0,0,2.9-2.9V15.9A2.9,2.9,0,0,0,1233.1,13Zm0.64,1.992H1234v1.993l-1.98.006L1232.01,15Zm-5.24,3a2.51,2.51,0,1,1-2.51,2.51A2.519,2.519,0,0,1,1228.5,17.99Zm5.51,6.681a1.344,1.344,0,0,1-1.35,1.342h-8.32a1.35,1.35,0,0,1-1.35-1.342V18.987h1.96a4.476,4.476,0,0,0-.29,1.559,3.855,3.855,0,0,0,7.71,0,4.476,4.476,0,0,0-.29-1.559h1.93v5.684Z" transform="translate(-1221 -13)"/>
</svg>
