<svg xmlns="http://www.w3.org/2000/svg" width="30" height="30" viewBox="0 0 30 30">
  <defs>
    <style>
      .cls-1 {
        fill: #fb4381;
        fill-rule: evenodd;
      }
    </style>
  </defs>
  <path id="map-1" class="cls-1" d="M248.35,1292.87A1.686,1.686,0,0,1,246,1291.3v-23.48a2.816,2.816,0,0,1,1.653-2.57l4.682-2.1a1.673,1.673,0,0,1,2.345,1.56v23.47a2.818,2.818,0,0,1-1.653,2.58Zm14.644,0a1.686,1.686,0,0,0,2.346-1.57v-23.48a2.816,2.816,0,0,0-1.653-2.57l-4.682-2.1a1.673,1.673,0,0,0-2.345,1.56v23.47a2.819,2.819,0,0,0,1.652,2.58Zm6.667,0a1.686,1.686,0,0,1-2.345-1.57v-23.48a2.814,2.814,0,0,1,1.653-2.57l4.681-2.1a1.674,1.674,0,0,1,2.346,1.56v23.47a2.819,2.819,0,0,1-1.653,2.58Z" transform="translate(-246 -1263)"/>
</svg>
