<svg xmlns="http://www.w3.org/2000/svg" width="14" height="14" viewBox="0 0 14 14">
  <defs>
    <style>
      .cls-1 {
        fill: #fff;
        fill-rule: evenodd;
        opacity: 0.75;
      }
    </style>
  </defs>
  <path id="telephone" class="cls-1" d="M300.361,22.635c3.263,3.263,6.185,4.245,6.592,4.3a2.077,2.077,0,0,0,2.039-.778c1.132-1.131,1.246-1.726.622-2.349A16.793,16.793,0,0,0,307.024,22a0.935,0.935,0,0,0-1.082.046c-0.3.211-.653,0.48-0.977,0.715a0.973,0.973,0,0,1-1.164.058,12.4,12.4,0,0,1-3.628-3.628,0.972,0.972,0,0,1,.058-1.164c0.235-.324.5-0.674,0.715-0.978a0.934,0.934,0,0,0,.046-1.081,16.79,16.79,0,0,0-1.808-2.591c-0.623-.623-1.217-0.509-2.349.622a2.07,2.07,0,0,0-.777,2.04c0.058,0.406,1.039,3.329,4.3,6.592h0Z" transform="translate(-296 -13)"/>
</svg>
