<svg xmlns="http://www.w3.org/2000/svg" width="12" height="14.969" viewBox="0 0 12 14.969">
  <defs>
    <style>
      .cls-1 {
        fill: #fff;
        fill-rule: evenodd;
        opacity: 0.75;
      }
    </style>
  </defs>
  <path id="p" class="cls-1" d="M1112.36,13c-4.22,0-6.36,2.931-6.36,5.374a3.286,3.286,0,0,0,1.83,3.286,0.3,0.3,0,0,0,.44-0.215c0.04-.151.14-0.532,0.18-0.69a0.411,0.411,0,0,0-.12-0.48,2.422,2.422,0,0,1-.59-1.687,4.146,4.146,0,0,1,4.38-4.12c2.39,0,3.7,1.412,3.7,3.3,0,2.481-1.13,4.574-2.82,4.574a1.34,1.34,0,0,1-1.4-1.657,18.593,18.593,0,0,0,.78-3.052,1.167,1.167,0,0,0-1.2-1.292,1.988,1.988,0,0,0-1.71,2.227,3.254,3.254,0,0,0,.28,1.361s-0.97,3.989-1.15,4.688a9.134,9.134,0,0,0-.02,3.269,0.118,0.118,0,0,0,.21.049,9.145,9.145,0,0,0,1.61-2.815c0.1-.383.62-2.365,0.62-2.365a2.576,2.576,0,0,0,2.18,1.072c2.86,0,4.8-2.521,4.8-5.9C1118,15.381,1115.76,13,1112.36,13Z" transform="translate(-1106 -13)"/>
</svg>
