<svg xmlns="http://www.w3.org/2000/svg" width="30" height="30" viewBox="0 0 30 30">
  <defs>
    <style>
      .cls-1 {
        fill: #fb4381;
        fill-rule: evenodd;
      }
    </style>
  </defs>
  <path id="plane.svg" class="cls-1" d="M1130.77,1287.25a1.594,1.594,0,0,0,1.95-.38c0.55-.55,1.2-0.49,1.33.06l0.88,3.84a0.5,0.5,0,0,0,.82.22l0.9-.89a1.069,1.069,0,0,0,.28-0.62l0.05-5.25a1,1,0,0,1,.34-0.83c0.25-.25,3.52-3.41,3.85-3.74a0.723,0.723,0,0,1,1.27.37l3.95,12.26a0.974,0.974,0,0,0,1.62.46,4.8,4.8,0,0,0,.4-0.39,0.985,0.985,0,0,0,.28-0.69l0.03-18.16a2.787,2.787,0,0,1,.75-1.92c0.42-.42,1.98-1.87,3.98-3.87s1.73-3.64,1.1-4.27-2.27-.89-4.26,1.11-3.45,3.56-3.87,3.98a2.787,2.787,0,0,1-1.92.75l-18.14.03a1,1,0,0,0-.69.28l-0.4.4a0.98,0.98,0,0,0,.47,1.62l12.25,3.95a0.731,0.731,0,0,1,.37,1.28c-0.33.33-3.49,3.6-3.74,3.85a1.032,1.032,0,0,1-.83.35l-5.24.04a1.023,1.023,0,0,0-.62.29l-0.89.89a0.5,0.5,0,0,0,.22.82l3.84,0.88c0.55,0.13.61,0.79,0.06,1.34a1.585,1.585,0,0,0-.39,1.94h0Z" transform="translate(-1125 -1263)"/>
</svg>
