<svg xmlns="http://www.w3.org/2000/svg" width="16" height="13" viewBox="0 0 16 13">
  <defs>
    <style>
      .cls-1 {
        fill: #fff;
        fill-rule: evenodd;
        opacity: 0.75;
      }
    </style>
  </defs>
  <path id="twitter.svg" class="cls-1" d="M1161,15.534a6.569,6.569,0,0,1-1.89.517,3.314,3.314,0,0,0,1.45-1.816,6.624,6.624,0,0,1-2.09.8,3.285,3.285,0,0,0-5.68,2.246,3.086,3.086,0,0,0,.09.749,9.325,9.325,0,0,1-6.77-3.43,3.3,3.3,0,0,0,1.02,4.383,3.306,3.306,0,0,1-1.49-.41v0.041a3.281,3.281,0,0,0,2.64,3.218,3.317,3.317,0,0,1-1.49.057,3.288,3.288,0,0,0,3.07,2.279,6.632,6.632,0,0,1-4.86,1.36,9.333,9.333,0,0,0,14.37-7.865c0-.143,0-0.285-0.01-0.426A6.694,6.694,0,0,0,1161,15.534Z" transform="translate(-1145 -14)"/>
</svg>
