<svg xmlns="http://www.w3.org/2000/svg" width="16" height="14" viewBox="0 0 16 14">
  <defs>
    <style>
      .cls-1 {
        fill: #fff;
        fill-rule: evenodd;
        opacity: 0.75;
      }
    </style>
  </defs>
  <path id="vimeo.svg" class="cls-1" d="M1198.94,15.6a2.372,2.372,0,0,0-.3-1.907,2.894,2.894,0,0,0-2.65-.638,5.574,5.574,0,0,0-3.79,3.624c1.4-.107,2.13.1,1.99,1.662a5.7,5.7,0,0,1-.74,2.052c-0.42.791-1.21,2.341-2.24,1.224-0.92-1.008-.85-2.932-1.07-4.214a18.555,18.555,0,0,0-.47-2.354,2.4,2.4,0,0,0-1.22-1.569,2.474,2.474,0,0,0-1.79.361,32.178,32.178,0,0,0-3.66,2.988v0.091a1.44,1.44,0,0,0,.65.663c0.83,0.125,1.62-.784,2.18.161a9.893,9.893,0,0,1,.65,1.833c0.29,0.829.51,1.732,0.75,2.686,0.39,1.615.88,4.029,2.26,4.619a2.921,2.921,0,0,0,2.29-.424,12.73,12.73,0,0,0,3.54-3.409A23.526,23.526,0,0,0,1198.94,15.6Z" transform="translate(-1183 -13)"/>
</svg>
